<?xml version="1.0" standalone="no"?>
<!DOCTYPE svg PUBLIC "-//W3C//DTD SVG 20010904//EN"
 "http://www.w3.org/TR/2001/REC-SVG-20010904/DTD/svg10.dtd">
<svg version="1.0" xmlns="http://www.w3.org/2000/svg"
 width="247" height="232.07" viewBox="0 0 300.000000 300.000000"
 preserveAspectRatio="xMidYMid meet">

                    <g transform="matrix(0.1, 0, 0, -0.1, -5.739153, 318.857208)" style="fill:#000000" stroke="none" class="shape">
                        <path d="M2510 2865 c-26 -32 13 -81 48 -59 34 22 22 74 -18 74 -10 0 -23 -7
                    -30 -15z"></path>
                        <path d="M460 2855 c-26 -32 13 -81 48 -59 34 22 22 74 -18 74 -10 0 -23 -7
                    -30 -15z"></path>
                        <path d="M503 2759 l-33 -10 42 -67 c53 -86 62 -95 55 -57 -3 17 -9 56 -12 88
                    -4 31 -9 57 -13 56 -4 0 -22 -5 -39 -10z"></path>
                        <path d="M2480 2693 c-6 -32 -13 -64 -15 -70 -8 -25 3 -12 49 57 l46 70 -34 0
                    c-34 0 -35 -1 -46 -57z"></path>
                        <path d="M1333 2592 c-112 -48 -203 -89 -203 -92 0 -3 88 -44 195 -92 l194
                    -87 186 87 c102 48 185 89 185 92 0 5 -347 181 -353 179 -1 0 -93 -39 -204
                    -87z"></path>
                        <path d="M2152 2584 c-113 -32 -138 -44 -309 -147 l-185 -112 148 -6 c82 -4
                    211 -16 288 -28 l138 -21 67 59 c36 32 88 91 115 130 43 61 48 73 35 85 -15
                    14 -154 77 -167 75 -4 0 -62 -16 -130 -35z"></path>
                        <path d="M625 2530 l29 -30 -32 0 -31 0 33 -77 c45 -106 44 -106 346 -104 129
                    2 264 -2 300 -8 36 -5 85 -13 109 -16 l43 -6 -28 24 c-40 33 -132 86 -241 141
                    -119 59 -256 91 -428 100 l-129 7 29 -31z"></path>
                        <path d="M2402 2402 c-5 -16 -35 -50 -66 -76 -31 -27 -54 -52 -51 -56 2 -4 18
                    -10 35 -13 26 -6 30 -11 30 -41 0 -29 5 -38 29 -51 29 -14 30 -14 50 18 11 19
                    36 42 56 53 19 10 35 20 35 22 0 2 -16 24 -35 49 -19 25 -40 63 -47 85 -13 45
                    -23 48 -36 10z"></path>
                        <path d="M594 2309 l-28 -41 24 -19 c14 -10 37 -19 52 -19 37 0 44 -16 9 -23
                    -18 -4 -47 -28 -81 -66 -36 -43 -59 -61 -76 -61 -22 0 -19 -7 43 -91 64 -88
                    82 -103 152 -124 l23 -7 -7 180 -7 179 86 23 c47 13 84 26 80 29 -3 3 -46 13
                    -96 23 -60 11 -98 24 -113 38 -12 11 -24 20 -27 20 -3 0 -18 -18 -34 -41z"></path>
                        <path d="M2435 2139 c-3 -13 -4 -86 -3 -161 l3 -138 48 85 47 85 -41 73 c-50
                    88 -47 85 -54 56z"></path>
                        <path d="M1541 1926 c-6 -24 -13 -51 -17 -60 -5 -13 1 -16 31 -16 27 0 36 4
                    32 14 -3 7 -9 34 -12 60 -4 25 -11 46 -15 46 -4 0 -13 -20 -19 -44z"></path>
                        <path d="M750 1750 l0 -180 185 0 185 0 0 180 0 180 -185 0 -185 0 0 -180z"></path>
                        <path d="M2255 1895 l-40 -34 -147 -1 -148 0 0 -140 0 -140 200 0 200 0 0 175
                    c0 133 -3 175 -12 175 -7 0 -31 -16 -53 -35z"></path>
                        <path d="M541 1828 c-12 -35 -31 -75 -41 -89 l-19 -26 37 -36 c25 -25 61 -45
                    110 -61 l72 -25 0 120 c0 115 -1 120 -22 128 -23 9 -99 42 -108 48 -3 2 -16
                    -25 -29 -59z"></path>
                        <path d="M2454 1824 c-12 -32 -29 -53 -54 -69 -33 -21 -38 -29 -43 -77 -11
                    -90 -16 -84 73 -92 61 -5 85 -3 102 8 13 7 42 25 65 40 l42 26 -65 87 c-36 49
                    -70 96 -75 106 -15 27 -26 20 -45 -29z"></path>
                        <path d="M1460 1440 l0 -80 -115 0 -115 0 0 -50 0 -50 -445 0 -445 0 0 -35 0
                    -35 1235 0 1235 0 0 35 0 35 -470 0 -470 0 0 50 0 50 -115 0 -115 0 0 80 0 80
                    -90 0 -90 0 0 -80z"></path>
                        <path d="M459 1098 c-5 -12 -34 -270 -30 -273 2 -3 72 -5 154 -5 l150 0 -7
                    -72 c-4 -40 -10 -90 -13 -110 l-6 -38 -100 0 -100 0 7 60 7 60 -54 0 -54 0 -7
                    -46 c-3 -26 -6 -62 -6 -80 l0 -34 209 0 208 0 7 98 c4 53 9 121 13 150 l6 52
                    -153 0 -153 0 7 78 c12 131 4 122 111 122 l94 0 -6 -55 -6 -55 51 0 c58 0 56
                    -2 66 98 l5 52 -199 0 c-110 0 -200 -1 -201 -2z"></path>
                        <path d="M996 1063 c-3 -21 -17 -130 -31 -243 -14 -113 -27 -217 -30 -232 -4
                    -28 -4 -28 50 -28 65 0 56 -27 90 255 14 116 28 227 31 248 l6 37 -55 0 -55 0
                    -6 -37z"></path>
                        <path d="M1229 1098 c-5 -12 -34 -270 -30 -273 2 -3 72 -5 154 -5 l150 0 -7
                    -72 c-4 -40 -10 -90 -13 -110 l-6 -38 -100 0 -100 0 7 60 7 60 -54 0 -54 0 -7
                    -46 c-3 -26 -6 -62 -6 -80 l0 -34 209 0 208 0 7 98 c4 53 9 121 13 150 l6 52
                    -153 0 -153 0 7 78 c12 131 4 122 111 122 l94 0 -6 -55 -6 -55 51 0 c58 0 56
                    -2 66 98 l5 52 -199 0 c-110 0 -200 -1 -201 -2z"></path>
                        <path d="M1856 1092 c-2 -4 -41 -104 -86 -222 -45 -118 -91 -236 -101 -262
                    l-19 -48 58 0 57 0 19 53 c10 28 27 76 38 105 l19 52 95 0 c89 0 94 -1 99 -22
                    3 -13 13 -59 24 -103 l18 -80 56 -3 c32 -2 57 1 57 5 0 4 -30 126 -66 271
                    l-67 262 -98 0 c-54 0 -100 -3 -103 -8z m130 -131 c12 -52 25 -106 28 -122 l6
                    -29 -81 0 c-59 0 -80 3 -77 13 16 63 85 236 93 234 5 -2 20 -45 31 -96z"></path>
                        <path d="M2316 1063 c-3 -21 -17 -130 -31 -243 -14 -113 -27 -217 -30 -232 -4
                    -28 -4 -28 50 -28 65 0 57 -24 85 240 11 107 23 210 26 228 l5 32 99 0 100 0
                    -1 -27 c0 -16 -6 -66 -13 -113 l-11 -85 -88 -3 c-79 -3 -87 -5 -87 -22 0 -19
                    8 -20 140 -20 105 0 140 3 140 13 0 6 7 68 15 137 8 69 15 133 15 143 0 16
                    -16 17 -204 17 l-204 0 -6 -37z"></path>
                    </g>
                        <g class="glass">
                        <path style="stroke: rgba(0, 0, 0, 0); fill: rgb(255, 235, 15); opacity: 1;" d="M 165.911 128.452 L 211.893 129.066 L 219.205 122.396 L 225.472 121.841 L 225.994 102.429 L 220.771 95.446 L 165.416 94.891 L 165.911 128.452 Z" class="glass" id="glass"></path>
                        </g>
                    <g class="shine">
                        <path style="stroke: rgba(255, 254, 221, 0); fill: rgb(255, 254, 236);" d="M 215.119 95.419 L 184.784 128.665 L 168.479 128.528 L 200.661 95.255" class="shine"></path>
                        <path style="stroke: rgba(255, 254, 221, 0); fill: rgb(255, 254, 236);" d="M 225.477 101.627 L 203.322 128.917 L 190.406 128.78 L 221.385 96.403" class="shine"></path>
                    </g>
                </svg>